<svg width="60" height="60" viewBox="0 0 60 60" fill="none" xmlns="http://www.w3.org/2000/svg">
<path fill-rule="evenodd" clip-rule="evenodd" d="M39.0815 0C45.105 0 48.116 0 51.3585 1.025C54.8985 2.3135 57.6865 5.1015 58.975 8.6415C60 11.8835 60 14.8955 60 20.9185V39.0815C60 45.105 60 48.116 58.975 51.3585C57.6865 54.8985 54.8985 57.6865 51.3585 58.9745C48.116 60 45.105 60 39.0815 60H20.9185C14.895 60 11.8835 60 8.6415 58.9745C5.1015 57.6865 2.3135 54.8985 1.025 51.3585C0 48.116 0 45.105 0 39.0815V20.9185C0 14.8955 0 11.8835 1.025 8.6415C2.3135 5.1015 5.1015 2.3135 8.6415 1.025C11.8835 0 14.895 0 20.9185 0H39.0815Z" fill="url(#paint0_linear)"/>
<path fill-rule="evenodd" clip-rule="evenodd" d="M33.4359 47.3375C43.3994 45.8307 51 37.8796 51 28.2973C51 17.6397 41.598 8.99997 30 8.99997C18.402 8.99997 9 17.6397 9 28.2973C9 37.9075 16.6449 45.877 26.6512 47.3505C28.6746 48.0035 30 51.4537 30 51.4537C30 51.4537 30.5227 48.5869 33.4359 47.3375Z" fill="#F2F2F2"/>
<defs>
<linearGradient id="paint0_linear" x1="30" y1="0" x2="30" y2="60" gradientUnits="userSpaceOnUse">
<stop stop-color="#6FA5F6"/>
<stop offset="0.505696" stop-color="#125BC8"/>
</linearGradient>
</defs>
</svg>
