<svg width="24" height="24" viewBox="0 0 24 24" fill="none" xmlns="http://www.w3.org/2000/svg">
<path d="M3.19421 13.1951C2.35557 11.7814 2.06187 10.1101 2.36826 8.49515C2.67466 6.88018 3.56007 5.4326 4.85823 4.42425C6.15639 3.4159 7.77801 2.91613 9.41858 3.0188C11.0591 3.12146 12.6058 3.81949 13.7681 4.98181C14.9305 6.14414 15.6285 7.6908 15.7312 9.33136C15.8338 10.9719 15.3341 12.5936 14.3257 13.8917C13.3174 15.1899 11.8698 16.0753 10.2549 16.3817C8.63989 16.6881 6.96862 16.3944 5.55486 15.5558L5.55488 15.5557L3.22356 16.2218C3.1271 16.2494 3.02504 16.2506 2.92793 16.2255C2.83082 16.2003 2.74221 16.1496 2.67128 16.0787C2.60035 16.0078 2.54967 15.9192 2.52451 15.822C2.49935 15.7249 2.50061 15.6229 2.52817 15.5264L3.19426 13.1951L3.19421 13.1951Z" stroke="white" stroke-width="1.5" stroke-linecap="round" stroke-linejoin="round"/>
<path d="M8.63052 16.4899C8.96235 17.4319 9.49895 18.2886 10.2017 18.9982C10.9044 19.7079 11.7558 20.2529 12.6945 20.594C13.6332 20.935 14.6359 21.0636 15.6303 20.9706C16.6246 20.8775 17.586 20.5651 18.4451 20.0558L18.4451 20.0557L20.7764 20.7218C20.8729 20.7494 20.975 20.7506 21.0721 20.7255C21.1692 20.7003 21.2578 20.6496 21.3287 20.5787C21.3997 20.5078 21.4503 20.4192 21.4755 20.3221C21.5007 20.2249 21.4994 20.1229 21.4718 20.0264L20.8057 17.6951L20.8058 17.6951C21.3976 16.697 21.7222 15.5632 21.7483 14.4031C21.7743 13.243 21.501 12.0958 20.9546 11.0721C20.4082 10.0485 19.6071 9.18288 18.6288 8.55891C17.6504 7.93494 16.5278 7.57365 15.3692 7.50989" stroke="white" stroke-width="1.5" stroke-linecap="round" stroke-linejoin="round"/>
</svg>
