<svg width="16" height="16" viewBox="0 0 16 16" fill="none" xmlns="http://www.w3.org/2000/svg">
<path d="M8 8.75879C8.41421 8.75879 8.75 8.423 8.75 8.00879C8.75 7.59458 8.41421 7.25879 8 7.25879C7.58579 7.25879 7.25 7.59458 7.25 8.00879C7.25 8.423 7.58579 8.75879 8 8.75879Z" fill="#AFB4BB" stroke="#AFB4BB" stroke-width="1.5" stroke-linecap="round" stroke-linejoin="round"/>
<path d="M8 15.0177C8.41421 15.0177 8.75 14.6819 8.75 14.2677C8.75 13.8535 8.41421 13.5177 8 13.5177C7.58579 13.5177 7.25 13.8535 7.25 14.2677C7.25 14.6819 7.58579 15.0177 8 15.0177Z" fill="#AFB4BB" stroke="#AFB4BB" stroke-width="1.5" stroke-linecap="round" stroke-linejoin="round"/>
<path d="M8.00012 2.5C8.41434 2.5 8.75012 2.16421 8.75012 1.75C8.75012 1.33579 8.41434 1 8.00012 1C7.58591 1 7.25012 1.33579 7.25012 1.75C7.25012 2.16421 7.58591 2.5 8.00012 2.5Z" fill="#AFB4BB" stroke="#AFB4BB" stroke-width="1.5" stroke-linecap="round" stroke-linejoin="round"/>
</svg>
