<svg width="16" height="16" viewBox="0 0 16 16" fill="none" xmlns="http://www.w3.org/2000/svg">
<path fill-rule="evenodd" clip-rule="evenodd" d="M9.58797 4.31331C9.58797 3.70949 9.23657 3.28724 8.52754 3.28577C8.52874 3.28577 8.52993 3.28577 8.53112 3.28577H8.52384C8.52507 3.28577 8.52631 3.28577 8.52754 3.28577C8.08835 3.28671 7.61802 3.46008 7.27748 3.77403L5.42368 5.48618L9.58797 9.65047V4.31331ZM9.58797 11.7674L3.97761 6.15705H3.60402C2.92617 6.15705 2.30664 6.67447 2.30664 7.40322V8.88987C2.30664 9.61134 2.92617 10.1288 3.6113 10.1288H4.7046L7.27019 12.5191C7.61276 12.8324 8.06465 13 8.52384 13C9.07777 13 9.58797 12.5847 9.58797 11.9798V11.7674Z" fill="#AFB4BB"/>
<path d="M4 3L12 11" stroke="#AFB4BB" stroke-width="1.5" stroke-linecap="round" stroke-linejoin="round"/>
</svg>
