<svg width="17" height="17" viewBox="0 0 17 17" fill="none" xmlns="http://www.w3.org/2000/svg">
<path d="M14.7507 10.2825L9.64466 10.2828L9.64449 15.4608C9.64434 16.2312 9.02898 16.8552 8.26938 16.8554C7.88991 16.8554 7.54622 16.6994 7.29759 16.4472C7.04855 16.1947 6.89457 15.8463 6.89486 15.4614L6.89477 10.2825L1.78819 10.2826C1.40875 10.2826 1.06503 10.1266 0.816186 9.87423C0.567411 9.62195 0.4136 9.27369 0.413602 8.88857C0.413581 8.11841 1.02896 7.49434 1.78871 7.49404L6.89459 7.4938L6.89478 2.31556C6.89479 1.54537 7.51028 0.921176 8.26975 0.921172C9.02885 0.921389 9.64397 1.54521 9.64433 2.31517L9.64453 7.49386L14.7509 7.49385C15.5102 7.49429 16.1254 8.11818 16.1255 8.88793C16.1257 9.65827 15.5102 10.2825 14.7507 10.2825Z" fill="#AFB4BB"/>
</svg>
