<svg width="24" height="24" viewBox="0 0 24 24" fill="none" xmlns="http://www.w3.org/2000/svg">
<path d="M12 21C16.9706 21 21 16.9706 21 12C21 7.02944 16.9706 3 12 3C7.02944 3 3 7.02944 3 12C3 16.9706 7.02944 21 12 21Z" stroke="#AFB4BB" stroke-width="1.5" stroke-linecap="round" stroke-linejoin="round"/>
<path d="M9.00049 10H9.00949" stroke="#AFB4BB" stroke-width="2" stroke-linecap="round" stroke-linejoin="round"/>
<path d="M14.9995 10H15.0085" stroke="#AFB4BB" stroke-width="2" stroke-linecap="round" stroke-linejoin="round"/>
<path d="M9.50049 15C9.82637 15.3326 10.2153 15.5968 10.6446 15.7772C11.0739 15.9576 11.5349 16.0505 12.0005 16.0505C12.4661 16.0505 12.9271 15.9576 13.3564 15.7772C13.7856 15.5968 14.1746 15.3326 14.5005 15" stroke="#AFB4BB" stroke-width="1.5" stroke-linecap="round" stroke-linejoin="round"/>
</svg>
