<svg width="60" height="74" viewBox="0 0 60 74" fill="none" xmlns="http://www.w3.org/2000/svg">
<path fill-rule="evenodd" clip-rule="evenodd" d="M3 6C4.65685 6 6 4.65685 6 3C6 1.34315 4.65685 0 3 0C1.34315 0 0 1.34315 0 3C0 4.65685 1.34315 6 3 6Z" transform="translate(27 68)" fill="#01B41F"/>
<path fill-rule="evenodd" clip-rule="evenodd" d="M34.9086 26.1875C49.1421 25.1582 60 19.7275 60 13.1816C60 5.90137 46.5685 0 30 0C13.4315 0 0 5.90137 0 13.1816C0 19.7461 10.9207 25.1895 25.2148 26.1963C28.1061 26.6426 30 29 30 29C30 29 30.7467 27.041 34.9086 26.1875Z" transform="translate(0 38)" fill="url(#paint0_linear)" fill-opacity="0.3"/>
<path fill-rule="evenodd" clip-rule="evenodd" d="M34.9102 59.6006C49.1429 57.2568 60 44.8965 60 30C60 13.4316 46.5685 0 30 0C13.4315 0 0 13.4316 0 30C0 44.9395 10.9197 57.3281 25.2128 59.6201C28.1052 60.6328 30 66 30 66C30 66 30.7469 61.543 34.9102 59.6006Z" fill="#007AFF"/>
<defs>
<linearGradient id="paint0_linear" x2="1" gradientUnits="userSpaceOnUse" gradientTransform="translate(30 11.9022) scale(110.282 53.303) rotate(90)">
<stop stop-opacity="0.01"/>
<stop offset="1"/>
</linearGradient>
</defs>
</svg>
